<?xml version="1.0" encoding="UTF-8"?>
<svg width="40px" height="50px" viewBox="0 0 40 50" version="1.1" xmlns="http://www.w3.org/2000/svg" xmlns:xlink="http://www.w3.org/1999/xlink">
    <!-- Generator: Sketch 58 (84663) - https://sketch.com -->
    <title>htmlacademy</title>
    <desc>Created with Sketch.</desc>
    <g id="Page-1" stroke="none" stroke-width="1" fill="none" fill-rule="evenodd">
        <g id="htmlacademy" fill="#2E368F" fill-rule="nonzero">
            <path d="M20.2,-5.32907052e-15 L20,-5.32907052e-15 L0.3,2.1 L0.3,38.3 L20,50 L39.7,38.3 L39.7,2.1 L20.2,-5.32907052e-15 Z M37.2,36.8 L20,47 L2.8,36.8 L2.8,22 L19.9,32.2 L19.9,34 L8.2,27 L8.2,28.8 L20,35.9 L20,37.8 L8.2,30.8 L8.2,32.6 L20,39.6 L31.9,32.5 L31.9,24.9 L37.2,21.7 L37.2,36.8 L37.2,36.8 Z M37.1,19.8 L32.4,22.6 L30.2,23.9 L19.9,17.8 L19.9,19.6 L28.7,24.9 L28.6,24.9 L28.4,25 L27.1,25.7 L19.8,21.4 L19.8,23.2 L25.6,26.6 L24.2,27.5 L19.9,24.9 L19.9,26.7 L22.8,28.4 L19.9,30.1 L2.9,20 L19.9,9.8 L37.1,19.8 Z M37.2,18 L19.9,7.8 L2.8,18 L2.8,4.4 L20,2.6 L37.2,4.4 L37.2,18 Z" id="Shape"></path>
        </g>
    </g>
</svg>
