<?xml version="1.0" encoding="UTF-8"?>
<svg width="20px" height="20px" viewBox="0 0 20 20" version="1.1" xmlns="http://www.w3.org/2000/svg" xmlns:xlink="http://www.w3.org/1999/xlink">
    <!-- Generator: Sketch 58 (84663) - https://sketch.com -->
    <title>icon-video-fullscreen</title>
    <desc>Created with Sketch.</desc>
    <g id="Page-1" stroke="none" stroke-width="1" fill="none" fill-rule="evenodd">
        <g id="icon-video-fullscreen" fill="#5C6870" fill-rule="nonzero">
            <polygon id="Path" points="0 0 0 3 0 6 3 6 3 3 6 3 6 0 3 0"></polygon>
            <polygon id="Path" points="3 14 0 14 0 17 0 20 3 20 6 20 6 17 3 17"></polygon>
            <polygon id="Path" points="17 0 14 0 14 3 17 3 17 6 20 6 20 3 20 0"></polygon>
            <polygon id="Path" points="17 17 14 17 14 20 17 20 20 20 20 17 20 14 17 14"></polygon>
        </g>
    </g>
</svg>
