<?xml version="1.0" encoding="UTF-8"?>
<svg width="63px" height="76px" viewBox="0 0 63 76" version="1.1" xmlns="http://www.w3.org/2000/svg" xmlns:xlink="http://www.w3.org/1999/xlink">
    <!-- Generator: Sketch 58 (84663) - https://sketch.com -->
    <title>icon-gift</title>
    <desc>Created with Sketch.</desc>
    <g id="Page-1" stroke="none" stroke-width="1" fill="none" fill-rule="evenodd">
        <g id="icon-gift" fill="#81B3D2" fill-rule="nonzero">
            <path d="M60.165,22.23 L60.062,22.23 L35.758,22.23 C49.362,15.415 50.446,11.115 49.946,8.71 C48.801,4.794 44.342,1.772 40.098,3.369 C34.614,5.432 33.069,13.631 31.584,19.559 C29.69,13.561 27.858,5.91 23.573,2.034 C22.331,0.909 20.524,-0.203 17.897,0.031 C13.932,0.383 8.245,5.348 10.553,10.88 C12.77,16.193 20.092,19.55 24.907,22.23 L2.834,22.23 C1.275,22.23 0,23.506 0,25.065 L0,36.25 C0,37.809 1.275,39.084 2.835,39.084 L3.105,39.084 L3.105,75.083 L60.063,75.083 L60.063,39.084 L60.167,39.084 C61.728,39.084 63.002,37.809 63.002,36.25 L63.002,25.065 C63,23.506 61.725,22.23 60.165,22.23 Z M41.766,5.873 C43.836,5.567 46.673,7.156 46.942,9.044 C47.328,11.767 43.593,14.236 41.934,15.387 C39.45,17.11 37.081,17.998 34.756,19.393 C35.628,15.748 37.268,6.539 41.766,5.873 Z M19.232,15.721 C17.042,14.254 12.788,11.343 12.89,8.043 C13,4.491 18.545,1.552 21.57,4.204 C25.367,7.535 27.195,15.176 28.58,20.561 C25.381,19.042 22.35,17.808 19.232,15.721 Z M25.114,72.147 L6.042,72.147 L6.042,39.084 L25.114,39.084 L25.114,72.147 L25.114,72.147 Z M25.114,36.084 L3,36.084 L3,25.23 L25.114,25.23 L25.114,36.084 Z M35.115,72.146 L28.052,72.146 L28.052,25.23 L35.115,25.23 L35.115,72.146 Z M57.125,72.147 L38.053,72.147 L38.053,39.084 L57.125,39.084 L57.125,72.147 Z M60,36.084 L38.053,36.084 L38.053,25.23 L60,25.23 L60,36.084 Z" id="Shape"></path>
        </g>
    </g>
</svg>
