<?xml version="1.0" encoding="UTF-8"?>
<svg width="75px" height="73px" viewBox="0 0 75 73" version="1.1" xmlns="http://www.w3.org/2000/svg" xmlns:xlink="http://www.w3.org/1999/xlink">
    <!-- Generator: Sketch 58 (84663) - https://sketch.com -->
    <title>icon-house</title>
    <desc>Created with Sketch.</desc>
    <g id="Page-1" stroke="none" stroke-width="1" fill="none" fill-rule="evenodd">
        <g id="icon-house" fill="#81B3D2" fill-rule="nonzero">
            <path d="M29.503,65.345 L45.503,65.345 L45.503,41.407 L29.503,41.407 L29.503,65.345 Z M42.566,62.407 L32.441,62.407 L32.441,44.345 L42.566,44.345 L42.566,62.407 Z" id="Shape"></path>
            <path d="M72.62,39.44 L74.695,37.362 L64.788,27.449 L64.788,0.47 L50.974,0.47 L50.974,13.631 L37.349,0 L0,37.363 L2.077,39.441 L9.909,31.609 L9.909,69.408 L5.971,69.408 L5.971,72.346 L69.846,72.346 L69.846,69.408 L64.787,69.408 L64.787,31.608 L72.62,39.44 Z M53.913,3.408 L61.851,3.408 L61.851,24.512 L53.913,16.572 L53.913,3.408 Z M61.85,69.407 L12.846,69.407 L12.846,28.671 L37.348,4.169 L61.85,28.671 L61.85,69.407 Z" id="Shape"></path>
            <path d="M29.753,27.21 C29.753,31.49 33.223,34.96 37.503,34.96 C41.783,34.96 45.253,31.49 45.253,27.21 C45.253,22.931 41.783,19.46 37.503,19.46 C33.223,19.46 29.753,22.93 29.753,27.21 Z M37.503,22.241 C40.248,22.241 42.473,24.466 42.473,27.211 C42.473,29.956 40.248,32.182 37.503,32.182 C34.758,32.182 32.533,29.956 32.533,27.211 C32.533,24.466 34.759,22.241 37.503,22.241 Z" id="Shape"></path>
            <rect id="Rectangle" x="16.909" y="41.407" width="3" height="3.938"></rect>
            <rect id="Rectangle" x="22.846" y="41.407" width="3" height="3.938"></rect>
            <rect id="Rectangle" x="16.909" y="47.407" width="3" height="3.938"></rect>
            <rect id="Rectangle" x="22.846" y="47.407" width="3" height="3.938"></rect>
            <rect id="Rectangle" x="48.846" y="41.407" width="3" height="3.938"></rect>
            <rect id="Rectangle" x="54.784" y="41.407" width="3" height="3.938"></rect>
            <rect id="Rectangle" x="48.846" y="47.407" width="3" height="3.938"></rect>
            <rect id="Rectangle" x="54.784" y="47.407" width="3" height="3.938"></rect>
        </g>
    </g>
</svg>